<?xml version="1.0" encoding="iso-8859-1"?>

<!DOCTYPE svg PUBLIC "-//W3C//DTD SVG 1.1//EN" "http://www.w3.org/Graphics/SVG/1.1/DTD/svg11.dtd">
<!-- Uploaded to: SVG Repo, www.svgrepo.com, Generator: SVG Repo Mixer Tools -->
<svg version="1.1" xmlns="http://www.w3.org/2000/svg" xmlns:xlink="http://www.w3.org/1999/xlink" 
	 viewBox="0 0 512 512" xml:space="preserve">
<g id="balls_x5F_1_x5F_tennis">
	<g>
		<g>
			<defs>
				<circle id="SVGID_1_" cx="256" cy="256" r="200"/>
			</defs>
			<use xlink:href="#SVGID_1_"  style="overflow:visible;fill:#C6FF00;"/>
			<clipPath id="SVGID_2_">
				<use xlink:href="#SVGID_1_"  style="overflow:visible;"/>
			</clipPath>
			
				<circle style="clip-path:url(#SVGID_2_);fill:#EEEEEE;stroke:#424242;stroke-width:5;stroke-miterlimit:10;" cx="491" cy="256" r="172.049"/>
			<path style="clip-path:url(#SVGID_2_);fill:#C6FF00;stroke:#424242;stroke-width:5;stroke-miterlimit:10;" d="M493.029,405.035
				c-82.178,1.119-149.945-64.827-151.064-147.005c-1.119-82.178,64.827-149.945,147.005-151.064
				c82.178-1.119,149.945,64.827,151.064,147.005C641.154,336.149,575.208,403.916,493.029,405.035z"/>
			
				<circle style="clip-path:url(#SVGID_2_);fill:#EEEEEE;stroke:#424242;stroke-width:5;stroke-miterlimit:10;" cx="21" cy="256" r="172.049"/>
			<path style="clip-path:url(#SVGID_2_);fill:#C6FF00;stroke:#424242;stroke-width:5;stroke-miterlimit:10;" d="M23.029,405.035
				c-82.178,1.119-149.945-64.827-151.064-147.005c-1.119-82.178,64.827-149.945,147.005-151.064
				c82.178-1.119,149.945,64.827,151.064,147.005C171.154,336.149,105.208,403.916,23.029,405.035z"/>
		</g>
		<g id="XMLID_32_">
			<path style="fill:#424242;" d="M256,70c49.683,0,96.391,19.347,131.522,54.478S442,206.317,442,256
				s-19.347,96.391-54.478,131.522S305.683,442,256,442s-96.391-19.347-131.522-54.478S70,305.683,70,256
				s19.347-96.391,54.478-131.522S206.317,70,256,70 M256,56C145.543,56,56,145.543,56,256s89.543,200,200,200s200-89.543,200-200
				S366.457,56,256,56L256,56z"/>
		</g>
	</g>
</g>
<g id="Layer_1">
</g>
</svg>