<?xml version="1.0" encoding="UTF-8"?>
<svg xmlns="http://www.w3.org/2000/svg" xmlns:xlink="http://www.w3.org/1999/xlink" width="25px" height="24px" viewBox="0 0 25 24" version="1.1">
<g id="surface1">
<path style=" stroke:none;fill-rule:nonzero;fill:rgb(0%,0%,0%);fill-opacity:1;" d="M 8.378906 -0.0078125 C 8.410156 -0.0078125 8.445312 -0.0078125 8.476562 -0.0078125 C 8.585938 -0.0078125 8.699219 -0.0078125 8.808594 -0.0078125 C 8.886719 -0.0078125 8.964844 -0.0078125 9.042969 -0.0078125 C 9.304688 -0.0117188 9.5625 -0.0117188 9.820312 -0.0117188 C 9.910156 -0.0117188 10 -0.0117188 10.089844 -0.0117188 C 10.507812 -0.0117188 10.925781 -0.0117188 11.347656 -0.015625 C 11.832031 -0.015625 12.3125 -0.015625 12.796875 -0.015625 C 13.171875 -0.0195312 13.546875 -0.0195312 13.917969 -0.0195312 C 14.144531 -0.0195312 14.367188 -0.0195312 14.589844 -0.0195312 C 14.800781 -0.0234375 15.011719 -0.0234375 15.21875 -0.0234375 C 15.296875 -0.0234375 15.375 -0.0234375 15.449219 -0.0234375 C 16.179688 -0.0273438 16.179688 -0.0273438 16.457031 0.1875 C 16.628906 0.402344 16.707031 0.566406 16.703125 0.839844 C 16.703125 0.882812 16.703125 0.925781 16.703125 0.972656 C 16.703125 1.015625 16.703125 1.0625 16.703125 1.109375 C 16.703125 1.15625 16.703125 1.203125 16.703125 1.25 C 16.699219 1.363281 16.699219 1.480469 16.699219 1.59375 C 16.753906 1.601562 16.804688 1.605469 16.859375 1.613281 C 17.074219 1.644531 17.171875 1.691406 17.335938 1.828125 C 17.582031 2.175781 17.558594 2.539062 17.558594 2.945312 C 17.558594 3.019531 17.5625 3.089844 17.5625 3.164062 C 17.5625 3.351562 17.566406 3.539062 17.566406 3.726562 C 17.566406 3.921875 17.566406 4.113281 17.570312 4.304688 C 17.574219 4.683594 17.578125 5.058594 17.578125 5.4375 C 17.617188 5.421875 17.65625 5.40625 17.695312 5.390625 C 17.976562 5.285156 18.230469 5.304688 18.507812 5.417969 C 18.578125 5.449219 18.648438 5.480469 18.71875 5.507812 C 18.753906 5.523438 18.789062 5.539062 18.828125 5.554688 C 18.914062 5.59375 19.003906 5.632812 19.09375 5.671875 C 19.265625 5.503906 19.441406 5.339844 19.617188 5.171875 C 19.675781 5.113281 19.734375 5.058594 19.792969 5.003906 C 19.878906 4.921875 19.964844 4.839844 20.050781 4.757812 C 20.089844 4.71875 20.089844 4.71875 20.128906 4.679688 C 20.265625 4.550781 20.394531 4.417969 20.523438 4.277344 C 20.855469 3.90625 21.222656 3.5625 21.582031 3.214844 C 21.679688 3.125 21.773438 3.03125 21.867188 2.941406 C 22.003906 2.804688 22.140625 2.671875 22.277344 2.539062 C 22.34375 2.480469 22.34375 2.480469 22.40625 2.414062 C 22.667969 2.164062 22.886719 1.988281 23.265625 1.957031 C 23.675781 2.011719 23.90625 2.164062 24.164062 2.464844 C 24.316406 2.632812 24.480469 2.785156 24.648438 2.933594 C 24.851562 3.121094 24.980469 3.292969 25.019531 3.5625 C 25.019531 3.609375 25.019531 3.65625 25.019531 3.703125 C 25.023438 3.75 25.023438 3.796875 25.023438 3.84375 C 24.96875 4.167969 24.6875 4.386719 24.453125 4.609375 C 24.417969 4.640625 24.386719 4.675781 24.347656 4.707031 C 24.273438 4.78125 24.199219 4.851562 24.121094 4.921875 C 24.003906 5.035156 23.882812 5.148438 23.765625 5.261719 C 23.425781 5.582031 23.089844 5.902344 22.75 6.222656 C 22.539062 6.417969 22.332031 6.617188 22.125 6.8125 C 22.046875 6.886719 21.96875 6.964844 21.890625 7.039062 C 21.777344 7.140625 21.667969 7.246094 21.558594 7.351562 C 21.507812 7.398438 21.507812 7.398438 21.457031 7.445312 C 21.285156 7.601562 21.285156 7.601562 21.242188 7.816406 C 21.328125 8.003906 21.421875 8.191406 21.519531 8.375 C 21.601562 8.578125 21.625 8.738281 21.550781 8.949219 C 21.421875 9.210938 21.261719 9.355469 21.019531 9.527344 C 20.941406 9.582031 20.867188 9.636719 20.789062 9.695312 C 20.75 9.726562 20.710938 9.753906 20.667969 9.785156 C 19.21875 10.875 17.554688 12.160156 17.285156 14.003906 C 17.222656 14.511719 17.203125 15.019531 17.203125 15.53125 C 17.203125 15.589844 17.203125 15.644531 17.203125 15.703125 C 17.207031 16.40625 17.242188 17.109375 17.292969 17.808594 C 17.339844 18.472656 17.359375 19.136719 17.378906 19.804688 C 17.398438 20.484375 17.421875 21.164062 17.460938 21.839844 C 17.464844 21.890625 17.46875 21.945312 17.46875 21.996094 C 17.484375 22.238281 17.496094 22.476562 17.515625 22.71875 C 17.519531 22.800781 17.523438 22.886719 17.527344 22.972656 C 17.535156 23.027344 17.535156 23.027344 17.539062 23.085938 C 17.550781 23.351562 17.488281 23.542969 17.335938 23.765625 C 17.03125 24.039062 16.738281 24.011719 16.34375 24.015625 C 16.246094 24.015625 16.148438 24.015625 16.050781 24.019531 C 15.988281 24.019531 15.925781 24.019531 15.859375 24.019531 C 15.804688 24.019531 15.746094 24.019531 15.6875 24.023438 C 15.4375 23.988281 15.285156 23.871094 15.121094 23.6875 C 14.984375 23.503906 14.984375 23.394531 14.984375 23.167969 C 14.980469 23.132812 14.980469 23.101562 14.980469 23.066406 C 14.980469 22.957031 14.980469 22.84375 14.980469 22.734375 C 14.980469 22.652344 14.980469 22.574219 14.980469 22.496094 C 14.976562 22.277344 14.976562 22.0625 14.976562 21.847656 C 14.972656 21.621094 14.972656 21.394531 14.972656 21.167969 C 14.96875 20.742188 14.96875 20.3125 14.964844 19.886719 C 14.960938 19.398438 14.960938 18.914062 14.957031 18.425781 C 14.953125 17.425781 14.945312 16.421875 14.941406 15.421875 C 14.300781 15.804688 13.59375 16.3125 13.378906 17.039062 C 13.289062 17.488281 13.273438 17.941406 13.273438 18.398438 C 13.273438 18.429688 13.273438 18.464844 13.273438 18.5 C 13.273438 18.933594 13.289062 19.363281 13.304688 19.796875 C 13.320312 20.203125 13.328125 20.609375 13.335938 21.019531 C 13.335938 21.160156 13.339844 21.304688 13.34375 21.449219 C 13.34375 21.484375 13.34375 21.519531 13.34375 21.554688 C 13.347656 21.757812 13.351562 21.964844 13.359375 22.167969 C 13.363281 22.265625 13.367188 22.363281 13.371094 22.457031 C 13.375 22.574219 13.378906 22.691406 13.382812 22.808594 C 13.394531 23.1875 13.371094 23.507812 13.113281 23.808594 C 12.796875 24.054688 12.488281 24.015625 12.09375 24.015625 C 12.03125 24.019531 11.964844 24.019531 11.902344 24.019531 C 11.308594 24.023438 11.308594 24.023438 11.035156 23.8125 C 10.800781 23.550781 10.785156 23.253906 10.78125 22.921875 C 10.78125 22.886719 10.78125 22.847656 10.78125 22.808594 C 10.777344 22.683594 10.777344 22.5625 10.777344 22.4375 C 10.773438 22.351562 10.773438 22.265625 10.773438 22.179688 C 10.769531 21.953125 10.765625 21.726562 10.765625 21.503906 C 10.761719 21.273438 10.761719 21.039062 10.757812 20.808594 C 10.75 20.359375 10.746094 19.90625 10.742188 19.453125 C 9.703125 20.164062 9.703125 20.164062 9.15625 21.21875 C 9.082031 21.828125 9.109375 22.449219 9.164062 23.058594 C 9.1875 23.320312 9.195312 23.492188 9.035156 23.71875 C 8.882812 23.875 8.726562 23.996094 8.5 24.007812 C 8.34375 24.011719 8.183594 24.011719 8.027344 24.015625 C 7.921875 24.015625 7.820312 24.015625 7.71875 24.019531 C 7.652344 24.019531 7.589844 24.019531 7.523438 24.019531 C 7.433594 24.019531 7.433594 24.019531 7.34375 24.023438 C 7.105469 23.992188 6.949219 23.890625 6.804688 23.710938 C 6.785156 23.679688 6.765625 23.648438 6.746094 23.613281 C 6.722656 23.582031 6.703125 23.546875 6.683594 23.511719 C 6.667969 23.488281 6.65625 23.464844 6.640625 23.4375 C 6.609375 23.464844 6.609375 23.464844 6.574219 23.492188 C 6.515625 23.539062 6.453125 23.589844 6.394531 23.640625 C 6.335938 23.691406 6.273438 23.738281 6.214844 23.789062 C 6.019531 23.949219 5.882812 24.007812 5.625 24.011719 C 5.582031 24.011719 5.542969 24.015625 5.5 24.015625 C 5.128906 23.972656 4.914062 23.71875 4.667969 23.472656 C 4.597656 23.402344 4.527344 23.332031 4.457031 23.265625 C 4.425781 23.234375 4.394531 23.203125 4.363281 23.171875 C 4.265625 23.078125 4.167969 22.992188 4.0625 22.910156 C 3.738281 22.636719 3.433594 22.34375 3.125 22.050781 C 3.050781 21.980469 2.972656 21.90625 2.894531 21.835938 C 2.785156 21.730469 2.671875 21.625 2.5625 21.519531 C 2.507812 21.472656 2.507812 21.472656 2.457031 21.421875 C 2.214844 21.191406 2.0625 20.953125 2.046875 20.621094 C 2.066406 20.351562 2.179688 20.164062 2.382812 19.988281 C 2.488281 19.902344 2.601562 19.820312 2.710938 19.742188 C 3.3125 19.289062 3.890625 18.820312 4.457031 18.332031 C 4.492188 18.296875 4.492188 18.296875 4.53125 18.265625 C 5.804688 17.164062 6.777344 16.125 6.875 14.421875 C 6.902344 13.910156 6.890625 13.402344 6.859375 12.890625 C 6.859375 12.859375 6.855469 12.828125 6.855469 12.792969 C 6.808594 11.976562 6.71875 11.167969 6.59375 10.359375 C 6.554688 10.394531 6.519531 10.429688 6.480469 10.46875 C 6.429688 10.515625 6.382812 10.5625 6.332031 10.609375 C 6.308594 10.632812 6.285156 10.65625 6.261719 10.679688 C 5.605469 11.3125 4.675781 11.621094 3.761719 11.640625 C 2.898438 11.621094 2.085938 11.351562 1.417969 10.828125 C 1.375 10.796875 1.335938 10.769531 1.296875 10.738281 C 0.746094 10.292969 0.386719 9.738281 0.148438 9.09375 C 0.128906 9.050781 0.113281 9.007812 0.0976562 8.964844 C -0.191406 8.074219 0 7.117188 0.433594 6.308594 C 0.574219 6.058594 0.726562 5.835938 0.929688 5.625 C 0.984375 5.566406 0.984375 5.566406 1.039062 5.507812 C 1.316406 5.226562 1.605469 5.015625 1.953125 4.828125 C 1.992188 4.804688 2.03125 4.785156 2.070312 4.761719 C 2.890625 4.332031 3.875 4.257812 4.769531 4.5 C 5.417969 4.714844 5.96875 5.023438 6.453125 5.492188 C 6.480469 5.515625 6.503906 5.539062 6.53125 5.566406 C 6.550781 5.585938 6.570312 5.605469 6.59375 5.625 C 6.59375 5.582031 6.59375 5.539062 6.59375 5.496094 C 6.59375 5.101562 6.597656 4.703125 6.601562 4.304688 C 6.601562 4.101562 6.605469 3.898438 6.605469 3.695312 C 6.605469 3.496094 6.609375 3.300781 6.609375 3.101562 C 6.609375 3.027344 6.609375 2.953125 6.609375 2.875 C 6.613281 2.0625 6.613281 2.0625 6.945312 1.714844 C 7.125 1.617188 7.269531 1.613281 7.472656 1.59375 C 7.46875 1.566406 7.46875 1.539062 7.46875 1.507812 C 7.464844 1.382812 7.460938 1.253906 7.457031 1.125 C 7.457031 1.082031 7.457031 1.039062 7.453125 0.992188 C 7.449219 0.699219 7.488281 0.480469 7.667969 0.234375 C 7.894531 0.0234375 8.066406 -0.00390625 8.378906 -0.0078125 Z M 8.351562 0.84375 C 8.351562 1.089844 8.351562 1.339844 8.351562 1.59375 C 8.417969 1.613281 8.484375 1.628906 8.554688 1.648438 C 8.71875 1.695312 8.78125 1.726562 8.890625 1.851562 C 9.082031 2.011719 9.21875 2.003906 9.460938 2 C 9.523438 2.003906 9.523438 2.003906 9.585938 2.003906 C 9.671875 2.003906 9.757812 2.003906 9.847656 2 C 9.980469 2 10.109375 2.003906 10.242188 2.003906 C 10.328125 2.003906 10.410156 2.003906 10.496094 2.003906 C 10.535156 2.003906 10.574219 2.007812 10.613281 2.007812 C 10.832031 2.003906 10.949219 1.976562 11.113281 1.832031 C 11.136719 1.808594 11.164062 1.78125 11.1875 1.757812 C 11.28125 1.6875 11.28125 1.6875 11.621094 1.59375 C 11.621094 1.347656 11.621094 1.097656 11.621094 0.84375 C 10.542969 0.84375 9.460938 0.84375 8.351562 0.84375 Z M 12.5 0.84375 C 12.5 1.089844 12.5 1.339844 12.5 1.59375 C 12.585938 1.609375 12.585938 1.609375 12.675781 1.621094 C 12.84375 1.652344 12.921875 1.714844 13.042969 1.828125 C 13.246094 2 13.410156 2.007812 13.671875 2.003906 C 13.734375 2.003906 13.734375 2.003906 13.796875 2.003906 C 13.886719 2.003906 13.972656 2.003906 14.058594 2.003906 C 14.191406 2 14.324219 2 14.453125 2.003906 C 14.539062 2.003906 14.625 2.003906 14.707031 2 C 14.746094 2 14.785156 2.003906 14.828125 2.003906 C 15.039062 1.996094 15.113281 1.988281 15.277344 1.851562 C 15.3125 1.8125 15.347656 1.773438 15.382812 1.734375 C 15.527344 1.667969 15.664062 1.636719 15.820312 1.59375 C 15.820312 1.347656 15.820312 1.097656 15.820312 0.84375 C 14.726562 0.84375 13.628906 0.84375 12.5 0.84375 Z M 7.519531 2.4375 C 7.519531 6.597656 7.519531 10.757812 7.519531 15.046875 C 7.632812 14.953125 7.746094 14.859375 7.863281 14.765625 C 7.925781 14.726562 7.925781 14.726562 7.988281 14.6875 C 8.164062 14.5625 8.277344 14.445312 8.324219 14.238281 C 8.367188 13.894531 8.355469 13.546875 8.351562 13.203125 C 8.351562 13.085938 8.351562 12.96875 8.351562 12.851562 C 8.351562 12.597656 8.351562 12.347656 8.347656 12.09375 C 8.34375 11.730469 8.34375 11.363281 8.34375 11 C 8.339844 10.410156 8.339844 9.816406 8.332031 9.226562 C 8.328125 8.652344 8.328125 8.074219 8.324219 7.5 C 8.324219 7.449219 8.324219 7.449219 8.324219 7.394531 C 8.324219 7.214844 8.324219 7.039062 8.324219 6.859375 C 8.316406 5.386719 8.3125 3.910156 8.300781 2.4375 C 8.042969 2.4375 7.785156 2.4375 7.519531 2.4375 Z M 11.671875 2.4375 C 11.671875 5.285156 11.671875 8.128906 11.671875 11.0625 C 11.78125 10.96875 11.894531 10.875 12.011719 10.78125 C 12.058594 10.746094 12.101562 10.714844 12.148438 10.679688 C 12.375 10.496094 12.523438 10.34375 12.554688 10.054688 C 12.5625 9.878906 12.558594 9.710938 12.554688 9.535156 C 12.554688 9.457031 12.554688 9.382812 12.554688 9.304688 C 12.554688 9.09375 12.554688 8.882812 12.550781 8.675781 C 12.546875 8.457031 12.546875 8.234375 12.546875 8.015625 C 12.542969 7.601562 12.539062 7.1875 12.535156 6.769531 C 12.53125 6.296875 12.527344 5.824219 12.523438 5.351562 C 12.519531 4.382812 12.511719 3.410156 12.5 2.4375 C 12.226562 2.4375 11.953125 2.4375 11.671875 2.4375 Z M 15.871094 2.4375 C 15.871094 3.953125 15.871094 5.46875 15.871094 7.03125 C 15.980469 6.9375 16.09375 6.84375 16.210938 6.75 C 16.253906 6.722656 16.296875 6.691406 16.339844 6.660156 C 16.535156 6.511719 16.652344 6.378906 16.6875 6.140625 C 16.707031 5.90625 16.699219 5.671875 16.691406 5.4375 C 16.691406 5.347656 16.691406 5.261719 16.691406 5.175781 C 16.691406 4.949219 16.683594 4.722656 16.679688 4.496094 C 16.675781 4.265625 16.675781 4.03125 16.671875 3.800781 C 16.667969 3.347656 16.660156 2.890625 16.652344 2.4375 C 16.394531 2.4375 16.136719 2.4375 15.871094 2.4375 Z M 9.179688 2.8125 C 9.179688 6.324219 9.179688 9.835938 9.179688 13.453125 C 9.292969 13.359375 9.40625 13.265625 9.523438 13.171875 C 9.625 13.097656 9.726562 13.023438 9.828125 12.953125 C 10.347656 12.558594 10.808594 12.144531 10.902344 11.492188 C 10.957031 10.988281 10.9375 10.484375 10.917969 9.984375 C 10.910156 9.730469 10.910156 9.476562 10.910156 9.226562 C 10.90625 8.746094 10.894531 8.269531 10.882812 7.792969 C 10.867188 7.25 10.859375 6.707031 10.855469 6.164062 C 10.839844 5.046875 10.820312 3.929688 10.792969 2.8125 C 10.257812 2.8125 9.726562 2.8125 9.179688 2.8125 Z M 13.378906 2.8125 C 13.378906 4.992188 13.378906 7.175781 13.378906 9.421875 C 13.492188 9.328125 13.605469 9.234375 13.722656 9.140625 C 13.824219 9.074219 13.925781 9.003906 14.027344 8.9375 C 14.503906 8.605469 14.941406 8.222656 15.058594 7.648438 C 15.160156 6.925781 15.113281 6.191406 15.078125 5.46875 C 15.0625 5.167969 15.058594 4.871094 15.050781 4.570312 C 15.039062 3.984375 15.015625 3.398438 14.992188 2.8125 C 14.457031 2.8125 13.925781 2.8125 13.378906 2.8125 Z M 23.132812 2.949219 C 23.089844 2.996094 23.046875 3.039062 23 3.082031 C 22.972656 3.105469 22.949219 3.128906 22.925781 3.152344 C 22.84375 3.230469 22.761719 3.3125 22.679688 3.390625 C 22.621094 3.445312 22.566406 3.5 22.507812 3.554688 C 22.386719 3.667969 22.269531 3.785156 22.148438 3.898438 C 21.996094 4.046875 21.84375 4.195312 21.691406 4.339844 C 21.570312 4.453125 21.453125 4.566406 21.335938 4.683594 C 21.277344 4.734375 21.222656 4.789062 21.167969 4.84375 C 20.894531 5.105469 20.628906 5.363281 20.378906 5.644531 C 20.273438 5.761719 20.160156 5.867188 20.046875 5.976562 C 20.003906 6.015625 19.960938 6.058594 19.917969 6.097656 C 19.886719 6.128906 19.855469 6.15625 19.824219 6.1875 C 19.890625 6.332031 19.964844 6.425781 20.082031 6.535156 C 20.113281 6.566406 20.140625 6.59375 20.171875 6.625 C 20.222656 6.667969 20.222656 6.667969 20.269531 6.714844 C 20.300781 6.746094 20.335938 6.777344 20.367188 6.808594 C 20.445312 6.882812 20.527344 6.957031 20.605469 7.03125 C 20.839844 6.84375 21.0625 6.648438 21.277344 6.4375 C 21.308594 6.410156 21.339844 6.378906 21.371094 6.347656 C 21.472656 6.25 21.574219 6.152344 21.675781 6.054688 C 21.746094 5.988281 21.816406 5.921875 21.886719 5.851562 C 22.070312 5.675781 22.257812 5.496094 22.441406 5.316406 C 22.632812 5.136719 22.820312 4.953125 23.007812 4.773438 C 23.378906 4.417969 23.75 4.058594 24.121094 3.703125 C 24.074219 3.652344 24.027344 3.597656 23.980469 3.546875 C 23.957031 3.515625 23.929688 3.488281 23.902344 3.457031 C 23.8125 3.359375 23.71875 3.265625 23.621094 3.175781 C 23.507812 3.070312 23.425781 2.984375 23.339844 2.859375 C 23.230469 2.847656 23.230469 2.847656 23.132812 2.949219 Z M 1.652344 6.074219 C 1.085938 6.644531 0.855469 7.386719 0.832031 8.15625 C 1.175781 7.882812 1.488281 7.578125 1.804688 7.273438 C 1.863281 7.214844 1.925781 7.160156 1.984375 7.101562 C 2.113281 6.976562 2.238281 6.855469 2.367188 6.734375 C 2.527344 6.578125 2.691406 6.421875 2.855469 6.265625 C 2.980469 6.144531 3.105469 6.027344 3.230469 5.90625 C 3.289062 5.847656 3.351562 5.789062 3.410156 5.734375 C 3.492188 5.652344 3.578125 5.570312 3.660156 5.492188 C 3.6875 5.46875 3.710938 5.445312 3.738281 5.417969 C 3.855469 5.328125 3.855469 5.328125 3.90625 5.203125 C 3.019531 5.179688 2.292969 5.511719 1.652344 6.074219 Z M 4.8125 5.539062 C 4.785156 5.566406 4.757812 5.59375 4.726562 5.621094 C 4.679688 5.667969 4.679688 5.667969 4.632812 5.714844 C 4.597656 5.746094 4.5625 5.78125 4.527344 5.816406 C 4.488281 5.851562 4.453125 5.886719 4.414062 5.921875 C 4.292969 6.039062 4.171875 6.15625 4.050781 6.273438 C 3.964844 6.355469 3.882812 6.4375 3.796875 6.515625 C 3.578125 6.730469 3.355469 6.945312 3.132812 7.15625 C 2.90625 7.375 2.679688 7.59375 2.453125 7.8125 C 2.011719 8.238281 1.566406 8.664062 1.125 9.09375 C 1.203125 9.25 1.285156 9.402344 1.367188 9.5625 C 1.511719 9.578125 1.511719 9.578125 1.59375 9.503906 C 1.636719 9.460938 1.636719 9.460938 1.679688 9.421875 C 1.710938 9.386719 1.746094 9.355469 1.78125 9.324219 C 1.832031 9.273438 1.832031 9.273438 1.890625 9.21875 C 1.945312 9.164062 1.945312 9.164062 2.003906 9.109375 C 2.128906 8.984375 2.257812 8.863281 2.382812 8.742188 C 2.46875 8.65625 2.558594 8.574219 2.644531 8.488281 C 2.851562 8.289062 3.058594 8.089844 3.265625 7.890625 C 3.5 7.664062 3.734375 7.4375 3.96875 7.210938 C 4.453125 6.746094 4.9375 6.28125 5.421875 5.8125 C 5.28125 5.675781 5.15625 5.574219 4.980469 5.484375 C 4.878906 5.472656 4.878906 5.472656 4.8125 5.539062 Z M 18.066406 6.1875 C 18.046875 6.207031 18.027344 6.226562 18.007812 6.246094 C 17.796875 6.449219 17.585938 6.648438 17.378906 6.851562 C 17.300781 6.925781 17.222656 7 17.144531 7.074219 C 17.03125 7.183594 16.921875 7.292969 16.808594 7.402344 C 16.757812 7.449219 16.757812 7.449219 16.703125 7.5 C 16.671875 7.53125 16.636719 7.566406 16.601562 7.597656 C 16.574219 7.625 16.546875 7.652344 16.515625 7.679688 C 16.425781 7.765625 16.332031 7.839844 16.238281 7.917969 C 15.972656 8.144531 15.722656 8.382812 15.472656 8.625 C 15.417969 8.675781 15.367188 8.726562 15.3125 8.78125 C 15.164062 8.921875 15.015625 9.0625 14.867188 9.207031 C 14.707031 9.359375 14.546875 9.511719 14.390625 9.664062 C 14.113281 9.929688 13.835938 10.195312 13.558594 10.460938 C 13.160156 10.847656 12.761719 11.230469 12.359375 11.613281 C 11.710938 12.234375 11.0625 12.859375 10.417969 13.480469 C 9.785156 14.085938 9.15625 14.691406 8.527344 15.296875 C 8.488281 15.332031 8.449219 15.371094 8.410156 15.410156 C 8.214844 15.597656 8.019531 15.78125 7.824219 15.96875 C 6.210938 17.523438 4.59375 19.074219 2.980469 20.625 C 3.023438 20.675781 3.070312 20.730469 3.117188 20.78125 C 3.144531 20.808594 3.167969 20.839844 3.195312 20.871094 C 3.296875 20.980469 3.40625 21.085938 3.515625 21.191406 C 3.539062 21.214844 3.558594 21.234375 3.582031 21.257812 C 3.65625 21.328125 3.730469 21.398438 3.800781 21.46875 C 3.851562 21.515625 3.902344 21.566406 3.957031 21.613281 C 4.089844 21.742188 4.222656 21.871094 4.355469 21.996094 C 4.492188 22.128906 4.628906 22.257812 4.765625 22.390625 C 5.03125 22.644531 5.300781 22.902344 5.566406 23.15625 C 5.71875 23.089844 5.824219 23.015625 5.941406 22.902344 C 5.972656 22.871094 6.007812 22.835938 6.042969 22.804688 C 6.078125 22.769531 6.117188 22.734375 6.152344 22.699219 C 6.210938 22.644531 6.210938 22.644531 6.269531 22.585938 C 6.347656 22.511719 6.429688 22.433594 6.507812 22.355469 C 6.628906 22.238281 6.753906 22.121094 6.875 22.003906 C 6.953125 21.929688 7.03125 21.851562 7.109375 21.777344 C 7.144531 21.742188 7.179688 21.707031 7.21875 21.671875 C 7.253906 21.640625 7.285156 21.605469 7.324219 21.570312 C 7.351562 21.542969 7.382812 21.511719 7.414062 21.484375 C 7.503906 21.394531 7.585938 21.300781 7.671875 21.207031 C 7.863281 20.996094 8.066406 20.796875 8.269531 20.601562 C 8.3125 20.5625 8.351562 20.523438 8.390625 20.484375 C 8.523438 20.359375 8.65625 20.230469 8.792969 20.101562 C 8.886719 20.011719 8.984375 19.917969 9.078125 19.828125 C 9.285156 19.628906 9.488281 19.433594 9.695312 19.234375 C 9.992188 18.949219 10.292969 18.664062 10.589844 18.378906 C 11.074219 17.914062 11.558594 17.449219 12.039062 16.988281 C 12.070312 16.960938 12.097656 16.929688 12.128906 16.902344 C 12.363281 16.679688 12.597656 16.453125 12.832031 16.226562 C 13.039062 16.03125 13.242188 15.835938 13.449219 15.636719 C 13.476562 15.609375 13.503906 15.582031 13.535156 15.554688 C 14.015625 15.09375 14.5 14.628906 14.980469 14.167969 C 15.277344 13.882812 15.574219 13.597656 15.871094 13.3125 C 16.074219 13.117188 16.28125 12.921875 16.484375 12.726562 C 16.601562 12.613281 16.71875 12.503906 16.835938 12.390625 C 16.960938 12.269531 17.089844 12.144531 17.21875 12.023438 C 17.273438 11.972656 17.273438 11.972656 17.328125 11.917969 C 17.523438 11.726562 17.714844 11.535156 17.894531 11.332031 C 18.007812 11.207031 18.128906 11.089844 18.253906 10.972656 C 18.28125 10.945312 18.304688 10.921875 18.332031 10.894531 C 18.417969 10.8125 18.503906 10.730469 18.589844 10.648438 C 18.648438 10.59375 18.710938 10.535156 18.769531 10.476562 C 18.925781 10.328125 19.082031 10.179688 19.238281 10.027344 C 19.398438 9.875 19.558594 9.722656 19.714844 9.570312 C 20.027344 9.269531 20.339844 8.972656 20.65625 8.671875 C 20.382812 8.050781 20.382812 8.050781 19.957031 7.523438 C 19.929688 7.496094 19.898438 7.46875 19.871094 7.441406 C 19.8125 7.386719 19.753906 7.328125 19.695312 7.273438 C 19.609375 7.191406 19.523438 7.109375 19.4375 7.023438 C 19.027344 6.628906 18.605469 6.394531 18.066406 6.1875 Z M 5.847656 6.5625 C 5.796875 6.609375 5.796875 6.609375 5.746094 6.660156 C 5.710938 6.695312 5.671875 6.730469 5.636719 6.765625 C 5.597656 6.800781 5.558594 6.835938 5.519531 6.875 C 5.394531 6.996094 5.269531 7.117188 5.140625 7.238281 C 5.054688 7.324219 4.96875 7.40625 4.878906 7.492188 C 4.695312 7.667969 4.511719 7.84375 4.328125 8.019531 C 4.117188 8.222656 3.90625 8.425781 3.691406 8.628906 C 3.488281 8.824219 3.285156 9.019531 3.082031 9.21875 C 2.992188 9.300781 2.90625 9.382812 2.820312 9.46875 C 2.699219 9.582031 2.578125 9.699219 2.457031 9.816406 C 2.421875 9.851562 2.382812 9.886719 2.347656 9.921875 C 2.3125 9.953125 2.28125 9.984375 2.246094 10.019531 C 2.203125 10.058594 2.203125 10.058594 2.160156 10.101562 C 2.089844 10.167969 2.089844 10.167969 2.101562 10.265625 C 2.179688 10.332031 2.179688 10.332031 2.28125 10.394531 C 2.316406 10.417969 2.351562 10.4375 2.386719 10.460938 C 2.488281 10.511719 2.488281 10.511719 2.585938 10.464844 C 2.6875 10.40625 2.761719 10.34375 2.847656 10.261719 C 2.878906 10.230469 2.910156 10.203125 2.941406 10.171875 C 2.992188 10.121094 2.992188 10.121094 3.042969 10.074219 C 3.078125 10.039062 3.117188 10.003906 3.152344 9.96875 C 3.269531 9.855469 3.386719 9.742188 3.503906 9.628906 C 3.585938 9.550781 3.667969 9.46875 3.75 9.390625 C 3.964844 9.183594 4.179688 8.976562 4.398438 8.769531 C 4.617188 8.558594 4.835938 8.347656 5.054688 8.136719 C 5.488281 7.722656 5.917969 7.304688 6.347656 6.890625 C 6.261719 6.636719 6.261719 6.636719 6.105469 6.421875 C 5.96875 6.421875 5.941406 6.472656 5.847656 6.5625 Z M 6.398438 8.054688 C 6.367188 8.082031 6.339844 8.109375 6.3125 8.136719 C 6.285156 8.164062 6.253906 8.191406 6.226562 8.222656 C 6.128906 8.3125 6.03125 8.40625 5.933594 8.5 C 5.867188 8.5625 5.800781 8.625 5.734375 8.691406 C 5.59375 8.824219 5.457031 8.960938 5.316406 9.09375 C 5.136719 9.265625 4.957031 9.441406 4.777344 9.613281 C 4.636719 9.746094 4.5 9.875 4.363281 10.007812 C 4.296875 10.074219 4.230469 10.136719 4.164062 10.199219 C 4.070312 10.289062 3.976562 10.378906 3.886719 10.464844 C 3.859375 10.492188 3.832031 10.519531 3.800781 10.546875 C 3.671875 10.648438 3.671875 10.648438 3.613281 10.78125 C 4.34375 10.816406 5.050781 10.585938 5.609375 10.128906 C 6.148438 9.660156 6.550781 9.050781 6.640625 8.34375 C 6.648438 8.1875 6.648438 8.03125 6.640625 7.875 C 6.535156 7.875 6.46875 7.988281 6.398438 8.054688 Z M 16.132812 14.101562 C 15.613281 14.664062 15.777344 15.605469 15.792969 16.308594 C 15.800781 16.546875 15.800781 16.789062 15.800781 17.03125 C 15.804688 17.484375 15.808594 17.941406 15.816406 18.398438 C 15.824219 18.917969 15.828125 19.4375 15.832031 19.953125 C 15.839844 21.023438 15.851562 22.089844 15.871094 23.15625 C 16.128906 23.15625 16.386719 23.15625 16.652344 23.15625 C 16.652344 20.0625 16.652344 16.96875 16.652344 13.78125 C 16.46875 13.78125 16.261719 13.988281 16.132812 14.101562 Z M 11.953125 18.171875 C 11.609375 18.527344 11.574219 18.839844 11.582031 19.308594 C 11.585938 19.40625 11.589844 19.503906 11.59375 19.605469 C 11.59375 19.707031 11.597656 19.808594 11.597656 19.914062 C 11.601562 20.179688 11.609375 20.449219 11.617188 20.71875 C 11.625 20.992188 11.628906 21.269531 11.632812 21.542969 C 11.640625 22.082031 11.652344 22.617188 11.671875 23.15625 C 11.945312 23.15625 12.21875 23.15625 12.5 23.15625 C 12.5 21.378906 12.5 19.597656 12.5 17.765625 C 12.320312 17.765625 12.074219 18.0625 11.953125 18.171875 Z M 7.777344 22.203125 C 7.554688 22.425781 7.46875 22.558594 7.472656 22.871094 C 7.488281 22.964844 7.503906 23.058594 7.519531 23.15625 C 7.777344 23.15625 8.035156 23.15625 8.300781 23.15625 C 8.300781 22.707031 8.300781 22.257812 8.300781 21.796875 C 8.128906 21.796875 7.894531 22.09375 7.777344 22.203125 Z M 7.777344 22.203125 "/>
</g>
</svg>
