<?xml version="1.0" encoding="UTF-8"?>
<svg xmlns="http://www.w3.org/2000/svg" xmlns:xlink="http://www.w3.org/1999/xlink" width="22px" height="22px" viewBox="0 0 22 22" version="1.1">
<g id="surface1">
<path style=" stroke:none;fill-rule:nonzero;fill:rgb(0%,0%,0%);fill-opacity:1;" d="M 3.667969 19.25 L 12.484375 19.25 C 13.554688 19.25 14.574219 18.78125 15.269531 17.96875 L 19.945312 12.511719 C 20.144531 12.28125 20.214844 11.964844 20.132812 11.671875 C 20.050781 11.378906 19.832031 11.144531 19.539062 11.046875 L 17.738281 10.445312 C 16.851562 10.15625 15.878906 10.332031 15.148438 10.90625 L 12.230469 13.242188 L 11.664062 12.109375 C 11.046875 10.863281 9.773438 10.078125 8.382812 10.082031 L 3.667969 10.082031 C 2.65625 10.082031 1.832031 10.90625 1.832031 11.917969 L 1.832031 17.417969 C 1.832031 18.429688 2.65625 19.25 3.667969 19.25 Z M 3.667969 11.917969 L 8.382812 11.917969 C 9.082031 11.917969 9.710938 12.304688 10.023438 12.929688 L 10.433594 13.75 L 6.417969 13.75 L 6.417969 15.582031 L 11.929688 15.582031 C 12.070312 15.582031 12.210938 15.546875 12.335938 15.484375 L 12.335938 15.480469 L 12.347656 15.480469 L 12.351562 15.476562 C 12.359375 15.480469 12.351562 15.476562 12.351562 15.476562 C 12.363281 15.476562 12.355469 15.476562 12.355469 15.476562 L 12.359375 15.476562 L 12.359375 15.472656 L 12.367188 15.472656 L 12.367188 15.46875 L 12.375 15.46875 L 12.375 15.464844 L 12.386719 15.464844 L 12.386719 15.460938 L 12.390625 15.460938 C 12.398438 15.460938 12.390625 15.460938 12.390625 15.460938 L 12.394531 15.460938 C 12.429688 15.4375 12.460938 15.414062 12.496094 15.386719 L 16.292969 12.347656 C 16.535156 12.15625 16.867188 12.097656 17.15625 12.195312 L 17.667969 12.363281 L 13.878906 16.785156 C 13.527344 17.1875 13.019531 17.414062 12.484375 17.417969 L 3.667969 17.417969 Z M 12.613281 2.132812 C 12.191406 2.597656 10.082031 5.003906 10.082031 6.875 C 10.082031 8.644531 11.523438 10.082031 13.292969 10.082031 C 15.0625 10.082031 16.5 8.644531 16.5 6.875 C 16.5 5.003906 14.390625 2.597656 13.96875 2.132812 C 13.621094 1.75 12.960938 1.75 12.613281 2.132812 Z M 14.667969 6.875 C 14.667969 7.632812 14.050781 8.25 13.292969 8.25 C 12.535156 8.25 11.917969 7.632812 11.917969 6.875 C 11.917969 6.226562 12.59375 5.101562 13.292969 4.183594 C 13.988281 5.101562 14.667969 6.226562 14.667969 6.875 Z M 14.667969 6.875 "/>
</g>
</svg>
