<?xml version="1.0" encoding="UTF-8"?>
<svg xmlns="http://www.w3.org/2000/svg" xmlns:xlink="http://www.w3.org/1999/xlink" width="22px" height="22px" viewBox="0 0 22 22" version="1.1">
<g id="surface1">
<path style=" stroke:none;fill-rule:nonzero;fill:rgb(0%,0%,0%);fill-opacity:1;" d="M 11.550781 8.796875 C 11.550781 10.011719 10.566406 10.996094 9.351562 10.996094 C 8.136719 10.996094 7.148438 10.011719 7.148438 8.796875 C 7.148438 7.582031 8.136719 6.597656 9.351562 6.597656 C 10.566406 6.597656 11.550781 7.582031 11.550781 8.796875 Z M 11.550781 8.796875 "/>
<path style=" stroke:none;fill-rule:nonzero;fill:rgb(0%,0%,0%);fill-opacity:1;" d="M 12.648438 8.796875 C 12.648438 9.175781 12.582031 9.539062 12.464844 9.878906 C 12.527344 9.882812 12.585938 9.898438 12.648438 9.898438 C 13.867188 9.898438 14.851562 8.914062 14.851562 7.699219 C 14.851562 6.480469 13.867188 5.496094 12.648438 5.496094 C 12.089844 5.496094 11.582031 5.714844 11.195312 6.0625 C 12.070312 6.65625 12.648438 7.660156 12.648438 8.796875 Z M 9.351562 12.097656 C 6.601562 12.097656 5.5 12.648438 5.5 14.296875 L 5.5 16.503906 L 13.199219 16.503906 L 13.199219 14.296875 C 13.199219 12.636719 12.101562 12.097656 9.351562 12.097656 Z M 9.351562 12.097656 "/>
<path style=" stroke:none;fill-rule:nonzero;fill:rgb(0%,0%,0%);fill-opacity:1;" d="M 12.648438 10.996094 C 12.339844 10.996094 12.050781 11.007812 11.78125 11.023438 C 11.730469 11.074219 11.679688 11.125 11.628906 11.175781 C 13 11.464844 14.296875 12.238281 14.296875 14.296875 L 14.296875 15.402344 L 16.5 15.402344 L 16.5 13.199219 C 16.5 11.539062 15.398438 10.996094 12.648438 10.996094 Z M 12.648438 10.996094 "/>
</g>
</svg>
