<?xml version="1.0" encoding="UTF-8"?>
<svg xmlns="http://www.w3.org/2000/svg" xmlns:xlink="http://www.w3.org/1999/xlink" width="22px" height="22px" viewBox="0 0 22 22" version="1.1">
<g id="surface1">
<path style=" stroke:none;fill-rule:nonzero;fill:rgb(0%,0%,0%);fill-opacity:1;" d="M 12.832031 11.230469 C 12.152344 11.230469 11.488281 11.027344 10.921875 10.648438 C 10.359375 10.273438 9.917969 9.734375 9.65625 9.105469 C 9.398438 8.480469 9.328125 7.789062 9.460938 7.121094 C 9.59375 6.453125 9.921875 5.839844 10.402344 5.359375 C 10.882812 4.878906 11.496094 4.554688 12.164062 4.421875 C 12.828125 4.289062 13.519531 4.355469 14.148438 4.617188 C 14.777344 4.875 15.3125 5.316406 15.691406 5.882812 C 16.070312 6.445312 16.269531 7.113281 16.269531 7.792969 C 16.269531 8.703125 15.910156 9.578125 15.265625 10.222656 C 14.621094 10.867188 13.746094 11.230469 12.832031 11.230469 Z M 12.832031 5.730469 C 12.425781 5.730469 12.027344 5.851562 11.6875 6.078125 C 11.347656 6.304688 11.082031 6.625 10.929688 7.003906 C 10.773438 7.378906 10.730469 7.792969 10.808594 8.195312 C 10.890625 8.59375 11.085938 8.960938 11.375 9.25 C 11.664062 9.539062 12.03125 9.734375 12.429688 9.816406 C 12.832031 9.894531 13.246094 9.851562 13.621094 9.695312 C 14 9.542969 14.320312 9.277344 14.546875 8.9375 C 14.773438 8.597656 14.894531 8.199219 14.894531 7.792969 C 14.894531 7.246094 14.679688 6.71875 14.292969 6.332031 C 13.90625 5.945312 13.378906 5.730469 12.832031 5.730469 Z M 12.832031 5.730469 "/>
<path style=" stroke:none;fill-rule:nonzero;fill:rgb(0%,0%,0%);fill-opacity:1;" d="M 19.25 17.644531 C 19.070312 17.644531 18.894531 17.570312 18.765625 17.441406 C 18.636719 17.3125 18.566406 17.140625 18.5625 16.957031 C 18.5625 15.171875 17.589844 13.980469 12.832031 13.980469 C 8.074219 13.980469 7.105469 15.171875 7.105469 16.957031 C 7.105469 17.140625 7.03125 17.316406 6.902344 17.445312 C 6.773438 17.574219 6.597656 17.644531 6.417969 17.644531 C 6.234375 17.644531 6.058594 17.574219 5.929688 17.445312 C 5.800781 17.316406 5.730469 17.140625 5.730469 16.957031 C 5.730469 12.605469 10.707031 12.605469 12.832031 12.605469 C 14.960938 12.605469 19.9375 12.605469 19.9375 16.957031 C 19.933594 17.140625 19.863281 17.3125 19.734375 17.441406 C 19.605469 17.570312 19.429688 17.644531 19.25 17.644531 Z M 19.25 17.644531 "/>
<path style=" stroke:none;fill-rule:nonzero;fill:rgb(0%,0%,0%);fill-opacity:1;" d="M 7.625 11.972656 L 7.332031 11.972656 C 6.605469 11.902344 5.933594 11.542969 5.464844 10.976562 C 5 10.414062 4.777344 9.683594 4.847656 8.957031 C 4.917969 8.226562 5.277344 7.554688 5.84375 7.089844 C 6.40625 6.625 7.136719 6.402344 7.863281 6.472656 C 7.957031 6.476562 8.050781 6.5 8.132812 6.539062 C 8.21875 6.582031 8.292969 6.636719 8.355469 6.707031 C 8.417969 6.777344 8.460938 6.863281 8.492188 6.949219 C 8.519531 7.039062 8.527344 7.132812 8.519531 7.226562 C 8.511719 7.320312 8.480469 7.410156 8.4375 7.492188 C 8.390625 7.574219 8.328125 7.644531 8.253906 7.703125 C 8.179688 7.761719 8.097656 7.800781 8.003906 7.824219 C 7.914062 7.847656 7.820312 7.851562 7.726562 7.835938 C 7.546875 7.820312 7.367188 7.839844 7.195312 7.890625 C 7.023438 7.945312 6.867188 8.03125 6.726562 8.148438 C 6.589844 8.261719 6.472656 8.398438 6.386719 8.558594 C 6.304688 8.714844 6.25 8.886719 6.234375 9.066406 C 6.214844 9.246094 6.230469 9.429688 6.285156 9.601562 C 6.335938 9.777344 6.421875 9.9375 6.539062 10.078125 C 6.652344 10.214844 6.792969 10.332031 6.953125 10.417969 C 7.113281 10.5 7.289062 10.554688 7.472656 10.570312 C 7.769531 10.59375 8.066406 10.523438 8.324219 10.367188 C 8.480469 10.273438 8.667969 10.242188 8.84375 10.285156 C 9.023438 10.324219 9.175781 10.4375 9.273438 10.59375 C 9.367188 10.746094 9.398438 10.933594 9.355469 11.113281 C 9.3125 11.289062 9.203125 11.445312 9.046875 11.539062 C 8.621094 11.8125 8.128906 11.960938 7.625 11.972656 Z M 7.625 11.972656 "/>
<path style=" stroke:none;fill-rule:nonzero;fill:rgb(0%,0%,0%);fill-opacity:1;" d="M 2.75 16.957031 C 2.570312 16.957031 2.394531 16.882812 2.265625 16.753906 C 2.136719 16.625 2.066406 16.453125 2.0625 16.269531 C 2.0625 13.796875 2.722656 12.144531 5.957031 12.144531 C 6.140625 12.144531 6.316406 12.21875 6.445312 12.347656 C 6.574219 12.476562 6.644531 12.652344 6.644531 12.832031 C 6.644531 13.015625 6.574219 13.191406 6.445312 13.320312 C 6.316406 13.449219 6.140625 13.519531 5.957031 13.519531 C 3.804688 13.519531 3.4375 14.207031 3.4375 16.269531 C 3.433594 16.453125 3.363281 16.625 3.234375 16.753906 C 3.105469 16.882812 2.929688 16.957031 2.75 16.957031 Z M 2.75 16.957031 "/>
</g>
</svg>
