<?xml version="1.0" encoding="UTF-8"?>
<svg xmlns="http://www.w3.org/2000/svg" xmlns:xlink="http://www.w3.org/1999/xlink" width="25px" height="24px" viewBox="0 0 25 24" version="1.1">
<g id="surface1">
<path style=" stroke:none;fill-rule:nonzero;fill:rgb(0%,0%,0%);fill-opacity:1;" d="M 21.527344 9.335938 L 15.136719 9.335938 C 14.753906 9.335938 14.4375 9.632812 14.4375 10 L 14.4375 16.667969 C 14.4375 17.035156 14.75 17.332031 15.132812 17.332031 L 21.527344 17.332031 C 21.910156 17.332031 22.21875 17.035156 22.21875 16.667969 L 22.21875 10 C 22.21875 9.632812 21.910156 9.335938 21.527344 9.335938 Z M 20.835938 16 L 15.832031 16 L 15.832031 10.667969 L 20.835938 10.667969 Z M 20.835938 16 "/>
<path style=" stroke:none;fill-rule:nonzero;fill:rgb(0%,0%,0%);fill-opacity:1;" d="M 17.75 19.335938 L 3.472656 19.335938 C 3.089844 19.335938 2.78125 19.632812 2.78125 20.003906 C 2.777344 20.367188 3.089844 20.667969 3.472656 20.667969 L 17.75 20.667969 C 18.136719 20.667969 18.445312 20.371094 18.445312 20.003906 C 18.445312 19.632812 18.136719 19.335938 17.75 19.335938 Z M 17.75 19.335938 "/>
<path style=" stroke:none;fill-rule:nonzero;fill:rgb(0%,0%,0%);fill-opacity:1;" d="M 12.363281 16 L 3.472656 16 C 3.089844 16 2.78125 16.300781 2.78125 16.667969 C 2.777344 17.035156 3.089844 17.332031 3.472656 17.332031 L 12.363281 17.332031 C 12.746094 17.332031 13.054688 17.035156 13.054688 16.667969 C 13.054688 16.300781 12.746094 16 12.363281 16 Z M 12.363281 16 "/>
<path style=" stroke:none;fill-rule:nonzero;fill:rgb(0%,0%,0%);fill-opacity:1;" d="M 12.363281 12.667969 L 3.472656 12.667969 C 3.089844 12.667969 2.78125 12.964844 2.78125 13.332031 C 2.777344 13.699219 3.089844 14 3.472656 14 L 12.363281 14 C 12.746094 14 13.054688 13.699219 13.054688 13.332031 C 13.054688 12.964844 12.746094 12.667969 12.363281 12.667969 Z M 12.363281 12.667969 "/>
<path style=" stroke:none;fill-rule:nonzero;fill:rgb(0%,0%,0%);fill-opacity:1;" d="M 12.363281 9.335938 L 3.472656 9.335938 C 3.089844 9.335938 2.78125 9.632812 2.78125 10 C 2.777344 10.371094 3.089844 10.667969 3.472656 10.667969 L 12.363281 10.667969 C 12.746094 10.667969 13.054688 10.371094 13.054688 10 C 13.054688 9.632812 12.746094 9.335938 12.363281 9.335938 Z M 12.363281 9.335938 "/>
<path style=" stroke:none;fill-rule:nonzero;fill:rgb(0%,0%,0%);fill-opacity:1;" d="M 24.304688 0 L 0.695312 0 C 0.308594 0 0 0.296875 0 0.667969 L 0 23.332031 C 0 23.703125 0.308594 24 0.695312 24 L 20.527344 24 C 20.707031 24 20.886719 23.929688 21.019531 23.804688 L 24.796875 20.179688 C 24.925781 20.054688 25 19.886719 25 19.707031 L 25 0.667969 C 25 0.296875 24.691406 0 24.304688 0 Z M 21.21875 21.722656 L 21.21875 20.371094 L 22.628906 20.371094 Z M 23.613281 19.039062 L 20.527344 19.039062 C 20.144531 19.039062 19.832031 19.335938 19.832031 19.707031 L 19.832031 22.667969 L 1.386719 22.667969 L 1.386719 1.332031 L 23.613281 1.332031 Z M 23.613281 19.039062 "/>
<path style=" stroke:none;fill-rule:nonzero;fill:rgb(0%,0%,0%);fill-opacity:1;" d="M 18.867188 5.128906 C 18.582031 5.128906 18.347656 4.910156 18.347656 4.628906 C 18.347656 4.355469 18.578125 4.128906 18.867188 4.128906 C 19.011719 4.128906 19.148438 4.1875 19.246094 4.285156 C 19.378906 4.417969 19.597656 4.425781 19.738281 4.300781 C 19.878906 4.171875 19.886719 3.964844 19.753906 3.828125 C 19.527344 3.59375 19.203125 3.457031 18.867188 3.457031 C 18.199219 3.457031 17.652344 3.984375 17.652344 4.625 C 17.652344 5.269531 18.199219 5.792969 18.867188 5.792969 C 19.152344 5.792969 19.390625 6.015625 19.390625 6.292969 C 19.390625 6.566406 19.160156 6.792969 18.867188 6.792969 C 18.726562 6.792969 18.585938 6.738281 18.488281 6.636719 C 18.355469 6.503906 18.140625 6.496094 17.996094 6.625 C 17.859375 6.75 17.847656 6.960938 17.980469 7.097656 C 18.207031 7.328125 18.535156 7.464844 18.867188 7.464844 C 19.539062 7.464844 20.082031 6.941406 20.082031 6.296875 C 20.082031 5.65625 19.539062 5.128906 18.867188 5.128906 Z M 18.867188 5.128906 "/>
<path style=" stroke:none;fill-rule:nonzero;fill:rgb(0%,0%,0%);fill-opacity:1;" d="M 10.902344 5.8125 C 11.09375 5.8125 11.25 5.660156 11.25 5.476562 C 11.25 5.292969 11.09375 5.140625 10.902344 5.140625 L 9.878906 5.140625 L 9.878906 4.152344 L 10.902344 4.152344 C 11.09375 4.152344 11.25 4 11.25 3.816406 C 11.25 3.632812 11.09375 3.480469 10.902344 3.480469 L 9.53125 3.480469 C 9.339844 3.480469 9.183594 3.632812 9.183594 3.816406 L 9.183594 7.148438 C 9.1875 7.332031 9.339844 7.484375 9.53125 7.484375 L 10.902344 7.484375 C 11.09375 7.484375 11.25 7.332031 11.25 7.148438 C 11.25 6.964844 11.09375 6.8125 10.902344 6.8125 L 9.878906 6.8125 L 9.878906 5.8125 Z M 10.902344 5.8125 "/>
<path style=" stroke:none;fill-rule:nonzero;fill:rgb(0%,0%,0%);fill-opacity:1;" d="M 7.351562 3.480469 C 7.160156 3.480469 7.003906 3.632812 7.003906 3.816406 L 7.003906 5.941406 L 5.5625 3.648438 C 5.480469 3.519531 5.320312 3.457031 5.171875 3.496094 C 5.019531 3.535156 4.917969 3.667969 4.917969 3.816406 L 4.917969 7.148438 C 4.917969 7.332031 5.074219 7.484375 5.265625 7.484375 C 5.457031 7.484375 5.613281 7.332031 5.613281 7.148438 L 5.613281 5.023438 L 7.050781 7.324219 C 7.117188 7.425781 7.230469 7.484375 7.351562 7.484375 C 7.382812 7.484375 7.417969 7.480469 7.445312 7.46875 C 7.597656 7.429688 7.703125 7.300781 7.703125 7.148438 L 7.703125 3.816406 C 7.703125 3.632812 7.542969 3.480469 7.351562 3.480469 Z M 7.351562 3.480469 "/>
<path style=" stroke:none;fill-rule:nonzero;fill:rgb(0%,0%,0%);fill-opacity:1;" d="M 16.492188 3.5 C 16.304688 3.453125 16.117188 3.558594 16.066406 3.738281 L 15.472656 5.863281 C 15.472656 5.863281 14.867188 3.71875 14.863281 3.707031 C 14.824219 3.609375 14.742188 3.527344 14.632812 3.5 C 14.445312 3.453125 14.257812 3.558594 14.207031 3.738281 L 13.613281 5.863281 L 13.023438 3.738281 C 12.972656 3.558594 12.78125 3.453125 12.597656 3.5 C 12.410156 3.546875 12.304688 3.730469 12.351562 3.90625 L 13.28125 7.238281 C 13.320312 7.382812 13.460938 7.484375 13.617188 7.484375 C 13.773438 7.484375 13.914062 7.382812 13.953125 7.238281 L 14.542969 5.113281 L 15.136719 7.238281 C 15.175781 7.382812 15.316406 7.484375 15.472656 7.484375 C 15.628906 7.484375 15.769531 7.382812 15.808594 7.238281 L 16.738281 3.90625 C 16.785156 3.726562 16.679688 3.546875 16.492188 3.5 Z M 16.492188 3.5 "/>
</g>
</svg>
