<?xml version="1.0" encoding="UTF-8"?>
<svg xmlns="http://www.w3.org/2000/svg" xmlns:xlink="http://www.w3.org/1999/xlink" width="25px" height="24px" viewBox="0 0 25 24" version="1.1">
<g id="surface1">
<path style=" stroke:none;fill-rule:nonzero;fill:rgb(0%,0%,0%);fill-opacity:1;" d="M 5.109375 0 L 5.109375 11.085938 L 0 11.085938 L 0 21.066406 C 0 22.683594 1.371094 24 3.054688 24 L 21.945312 24 C 23.628906 24 25 22.660156 25 21.015625 L 25 0 Z M 5.109375 21.066406 C 5.109375 22.15625 4.1875 23.039062 3.054688 23.039062 C 1.921875 23.039062 1 22.15625 1 21.066406 L 1 12.046875 L 5.109375 12.046875 Z M 24 21.015625 C 24 22.132812 23.078125 23.039062 21.945312 23.039062 L 5.308594 23.039062 C 5.804688 22.519531 6.109375 21.828125 6.109375 21.066406 L 6.109375 0.960938 L 24 0.960938 Z M 24 21.015625 "/>
<path style=" stroke:none;fill-rule:nonzero;fill:rgb(0%,0%,0%);fill-opacity:1;" d="M 8.042969 3 L 8.042969 13.597656 L 15.433594 13.597656 L 15.433594 3 Z M 14.433594 12.640625 L 9.042969 12.640625 L 9.042969 3.960938 L 14.433594 3.960938 Z M 14.433594 12.640625 "/>
<path style=" stroke:none;fill-rule:nonzero;fill:rgb(0%,0%,0%);fill-opacity:1;" d="M 16.914062 4.429688 L 22.414062 4.429688 L 22.414062 5.390625 L 16.914062 5.390625 Z M 16.914062 4.429688 "/>
<path style=" stroke:none;fill-rule:nonzero;fill:rgb(0%,0%,0%);fill-opacity:1;" d="M 16.914062 7.386719 L 22.414062 7.386719 L 22.414062 8.34375 L 16.914062 8.34375 Z M 16.914062 7.386719 "/>
<path style=" stroke:none;fill-rule:nonzero;fill:rgb(0%,0%,0%);fill-opacity:1;" d="M 16.914062 10.339844 L 22.414062 10.339844 L 22.414062 11.296875 L 16.914062 11.296875 Z M 16.914062 10.339844 "/>
<path style=" stroke:none;fill-rule:nonzero;fill:rgb(0%,0%,0%);fill-opacity:1;" d="M 7.777344 16.503906 L 22.414062 16.503906 L 22.414062 17.464844 L 7.777344 17.464844 Z M 7.777344 16.503906 "/>
<path style=" stroke:none;fill-rule:nonzero;fill:rgb(0%,0%,0%);fill-opacity:1;" d="M 7.777344 19.769531 L 22.414062 19.769531 L 22.414062 20.730469 L 7.777344 20.730469 Z M 7.777344 19.769531 "/>
</g>
</svg>
