<?xml version="1.0" encoding="UTF-8"?>
<svg xmlns="http://www.w3.org/2000/svg" xmlns:xlink="http://www.w3.org/1999/xlink" width="25px" height="24px" viewBox="0 0 25 24" version="1.1">
<g id="surface1">
<path style=" stroke:none;fill-rule:evenodd;fill:rgb(0%,0%,0%);fill-opacity:1;" d="M 4.167969 11 C 4.167969 7.132812 7.429688 4 11.457031 4 C 15.484375 4 18.75 7.132812 18.75 11 C 18.75 14.867188 15.484375 18 11.457031 18 C 7.429688 18 4.167969 14.867188 4.167969 11 Z M 11.457031 2 C 6.28125 2 2.082031 6.03125 2.082031 11 C 2.082031 15.96875 6.28125 20 11.457031 20 C 13.671875 20 15.707031 19.261719 17.308594 18.03125 L 21.136719 21.707031 C 21.546875 22.097656 22.203125 22.097656 22.613281 21.707031 C 23.019531 21.316406 23.019531 20.683594 22.613281 20.292969 L 18.785156 16.617188 C 20.066406 15.078125 20.832031 13.125 20.832031 11 C 20.832031 6.03125 16.636719 2 11.457031 2 Z M 11.457031 2 "/>
</g>
</svg>
