<?xml version="1.0" encoding="UTF-8"?>
<svg xmlns="http://www.w3.org/2000/svg" xmlns:xlink="http://www.w3.org/1999/xlink" width="22px" height="22px" viewBox="0 0 22 22" version="1.1">
<g id="surface1">
<path style=" stroke:none;fill-rule:evenodd;fill:rgb(26.27451%,26.27451%,26.27451%);fill-opacity:1;" d="M 15.488281 1.941406 L 3.988281 1.941406 L 3.988281 3.277344 L -0.0117188 3.277344 L -0.0117188 9.535156 C -0.0117188 11.953125 2.6875 13.941406 5.339844 14.148438 C 6.207031 15.082031 7.738281 15.757812 9.097656 16.046875 L 9.097656 17.683594 C 7.796875 18.082031 5.472656 19.023438 5.339844 20.046875 L 14.273438 20.046875 C 14.136719 19.023438 11.574219 18.082031 10.269531 17.683594 L 10.269531 16.046875 C 11.636719 15.757812 13.234375 15.082031 14.105469 14.148438 C 16.753906 13.941406 19.335938 11.953125 19.335938 9.535156 L 19.335938 3.277344 L 15.488281 3.277344 Z M 1.21875 4.460938 L 3.894531 4.460938 L 3.894531 9.851562 C 3.894531 10.914062 4.167969 11.929688 4.652344 12.839844 C 2.648438 12.199219 1.21875 10.558594 1.21875 8.632812 Z M 11.707031 11.035156 L 9.707031 9.933594 L 7.707031 11.035156 L 8.089844 8.707031 L 6.46875 7.058594 L 8.707031 6.71875 L 9.707031 4.601562 L 10.707031 6.71875 L 12.941406 7.058594 L 11.324219 8.707031 Z M 14.675781 13.011719 C 15.160156 12.058594 15.4375 11.003906 15.4375 9.890625 L 15.4375 4.496094 L 18.121094 4.496094 L 18.121094 8.617188 C 18.121094 10.628906 16.683594 12.34375 14.675781 13.011719 Z M 14.675781 13.011719 "/>
</g>
</svg>
