<?xml version="1.0" encoding="UTF-8"?>
<svg xmlns="http://www.w3.org/2000/svg" xmlns:xlink="http://www.w3.org/1999/xlink" width="25px" height="24px" viewBox="0 0 25 24" version="1.1">
<g id="surface1">
<path style=" stroke:none;fill-rule:nonzero;fill:rgb(0%,0%,0%);fill-opacity:1;" d="M 4.972656 2.886719 L 3.996094 2.886719 L 3.996094 2.878906 C 3.171875 2.878906 2.496094 3.527344 2.496094 4.320312 L 2.496094 24 L 3.472656 24 L 3.472656 4.324219 C 3.472656 4.039062 3.695312 3.820312 3.996094 3.820312 L 4.972656 3.820312 C 5.273438 3.820312 5.496094 4.039062 5.496094 4.324219 L 5.496094 24 L 6.472656 24 L 6.472656 4.324219 C 6.472656 3.535156 5.796875 2.886719 4.972656 2.886719 Z M 4.972656 2.886719 "/>
<path style=" stroke:none;fill-rule:nonzero;fill:rgb(0%,0%,0%);fill-opacity:1;" d="M 21.003906 2.886719 L 19.953125 2.886719 L 19.953125 2.878906 C 19.128906 2.878906 18.453125 3.527344 18.453125 4.320312 L 18.453125 24 L 19.503906 24 L 19.503906 4.324219 C 19.503906 4.039062 19.652344 3.820312 19.953125 3.820312 L 21.003906 3.820312 C 21.226562 3.820312 21.453125 4.039062 21.453125 4.324219 L 21.453125 24 L 22.503906 24 L 22.503906 4.324219 C 22.503906 3.535156 21.828125 2.886719 21.003906 2.886719 Z M 21.003906 2.886719 "/>
<path style=" stroke:none;fill-rule:nonzero;fill:rgb(0%,0%,0%);fill-opacity:1;" d="M 12.984375 2.886719 L 12.007812 2.886719 L 12.007812 2.878906 C 11.183594 2.878906 10.507812 3.527344 10.507812 4.320312 L 10.507812 24 L 11.484375 24 L 11.484375 4.324219 C 11.484375 4.039062 11.710938 3.820312 12.007812 3.820312 L 12.984375 3.820312 C 13.285156 3.820312 13.507812 4.039062 13.507812 4.324219 L 13.507812 24 L 14.484375 24 L 14.484375 4.324219 C 14.484375 3.535156 13.808594 2.886719 12.984375 2.886719 Z M 12.984375 2.886719 "/>
<path style=" stroke:none;fill-rule:nonzero;fill:rgb(0%,0%,0%);fill-opacity:1;" d="M 4.003906 1.945312 L 5.503906 1.945312 L 5.503906 2.375 C 5.503906 2.664062 5.726562 2.878906 6.027344 2.878906 L 10.972656 2.878906 C 11.273438 2.878906 11.496094 2.664062 11.496094 2.375 L 11.496094 1.945312 L 13.523438 1.945312 L 13.523438 2.375 C 13.523438 2.664062 13.746094 2.878906 13.972656 2.878906 L 18.992188 2.878906 C 19.289062 2.878906 19.515625 2.664062 19.515625 2.375 L 19.515625 1.945312 L 21.015625 1.945312 C 21.691406 1.945312 21.691406 0.9375 21.015625 0.9375 L 19.515625 0.9375 L 19.515625 0.503906 C 19.515625 0.214844 19.289062 0 18.992188 0 L 13.972656 0 C 13.746094 0 13.523438 0.214844 13.523438 0.503906 L 13.523438 0.9375 L 11.496094 0.9375 L 11.496094 0.503906 C 11.496094 0.214844 11.273438 0 10.972656 0 L 6.027344 0 C 5.953125 0 5.953125 0 5.953125 0 C 5.726562 0 5.503906 0.214844 5.503906 0.503906 L 5.503906 0.9375 L 4.003906 0.9375 C 4.003906 0.9375 4.003906 0.9375 3.929688 0.9375 C 3.253906 1.007812 3.328125 1.945312 4.003906 1.945312 Z M 14.503906 0.9375 L 18.472656 0.9375 L 18.472656 1.945312 L 14.503906 1.945312 Z M 6.492188 0.9375 L 10.535156 0.9375 L 10.535156 1.945312 L 6.492188 1.945312 Z M 6.492188 0.9375 "/>
</g>
</svg>
